<svg width="546" height="518" viewBox="0 0 546 518" fill="none" xmlns="http://www.w3.org/2000/svg">
<path fill-rule="evenodd" clip-rule="evenodd" d="M196.909 22.2324V89.916C196.909 97.0957 202.729 102.916 209.909 102.916H227.545C234.725 102.916 240.545 97.0957 240.545 89.916L240.546 74.3848L240.545 74.2598L240.546 40.8184C240.546 28.7695 250.313 19 262.363 19C274.372 19 284.114 28.7012 284.182 40.6934V167.119C284.182 174.299 290.002 180.119 297.182 180.119H314.817C321.997 180.119 327.817 174.299 327.817 167.119L327.818 99.5605L327.817 99.4375L327.818 55.9238C327.818 43.873 337.587 34.1055 349.637 34.1055C361.644 34.1055 371.386 43.8047 371.454 55.7969V89.916C371.454 97.0957 377.274 102.916 384.454 102.916H402.091C409.271 102.916 415.091 97.0957 415.091 89.916V86.1328V86.0059V22.3574C415.091 10.3066 424.859 0.539062 436.909 0.539062C448.915 0.539062 458.655 10.2363 458.727 22.2246V192.293C458.727 199.473 464.547 205.293 471.727 205.293H489.363C496.543 205.293 502.363 199.473 502.363 192.293V183.477V183.344V133.127C502.363 121.076 512.132 111.309 524.182 111.309C536.231 111.309 546 121.076 546 133.127V369.77C546 381.82 536.231 391.588 524.182 391.588C512.132 391.588 502.363 381.82 502.363 369.77V336.336V336.203V327.385C502.363 320.205 496.543 314.385 489.363 314.385H471.727C464.547 314.385 458.727 320.205 458.727 327.385V383.33C458.655 395.318 448.915 405.014 436.909 405.014C424.859 405.014 415.091 395.246 415.091 383.197V373.4C415.091 366.221 409.271 360.4 402.091 360.4H384.454C377.274 360.4 371.454 366.221 371.454 373.4V373.5V495.645C371.454 507.693 361.687 517.463 349.637 517.463C337.587 517.463 327.818 507.693 327.818 495.645L327.817 403.459L327.818 403.336L327.817 382.77C327.817 375.59 321.997 369.77 314.817 369.77H297.182C290.002 369.77 284.182 375.59 284.182 382.77V462.203C284.114 474.195 274.372 483.896 262.363 483.896C250.313 483.896 240.546 474.127 240.546 462.078L240.545 437.027L240.546 436.902L240.545 418.014C240.545 410.834 234.725 405.014 227.545 405.014H209.909C202.729 405.014 196.909 410.834 196.909 418.014V473.951C196.842 485.943 187.099 495.645 175.091 495.645C163.041 495.645 153.272 485.875 153.272 473.826V383.322V383.197V382.77C153.272 375.59 147.452 369.77 140.272 369.77H122.636C115.456 369.77 109.636 375.59 109.636 382.77V403.463C109.568 415.453 99.8262 425.154 87.8184 425.154C75.7686 425.154 66 415.387 66 403.336V153.266C66 141.217 75.7686 131.447 87.8184 131.447C99.8262 131.447 109.568 141.148 109.636 153.141V190.615C109.636 197.795 115.456 203.615 122.636 203.615H140.272C147.452 203.615 153.272 197.795 153.272 190.615V183.477V183.352V22.3574C153.272 10.3066 163.041 0.539062 175.091 0.539062C187.099 0.539062 196.842 10.2402 196.909 22.2324ZM502 446C502 433.85 511.85 424 524 424C536.15 424 546 433.85 546 446C546 458.15 536.15 468 524 468C511.85 468 502 458.15 502 446ZM88 63C75.8496 63 66 72.8496 66 85C66 97.1504 75.8496 107 88 107C100.15 107 110 97.1504 110 85C110 72.8496 100.15 63 88 63Z" fill="#FCCD32"/>
<path d="M358.707 212H254C244.611 212 237 219.611 237 229V298C237 307.389 244.611 315 254 315H358.707C368.096 315 375.707 307.389 375.707 298V229C375.707 219.611 368.096 212 358.707 212Z" fill="#FC9928"/>
<path fill-rule="evenodd" clip-rule="evenodd" d="M375.459 224L310.467 272.904C308.031 274.738 304.676 274.738 302.239 272.904L237.248 224L302.934 261.894C305.05 263.114 307.656 263.114 309.772 261.894L375.459 224Z" fill="white" fill-opacity="0.5"/>
<path d="M458.919 300H414.081C404.647 300 397 307.647 397 317.081V421.703C397 431.137 404.647 438.784 414.081 438.784H458.919C468.353 438.784 476 431.137 476 421.703V317.081C476 307.647 468.353 300 458.919 300Z" fill="#FC9928"/>
<path d="M469.594 317.082H403.405V411.028H469.594V317.082Z" fill="#DDDDDD"/>
<path d="M441.837 423.839C441.837 420.302 438.969 417.434 435.431 417.434C431.894 417.434 429.026 420.302 429.026 423.839C429.026 427.377 431.894 430.245 435.431 430.245C438.969 430.245 441.837 427.377 441.837 423.839Z" fill="white"/>
<path d="M86.9988 178.742C88.1704 177.571 90.0699 177.571 91.2414 178.742L105.035 192.536C106.207 193.708 106.207 195.607 105.035 196.779L102.204 199.609C100.252 201.562 97.0858 201.562 95.1332 199.609L84.168 188.644C82.2154 186.692 82.2154 183.526 84.168 181.573L86.9988 178.742Z" fill="#FC9928"/>
<path d="M72.4985 185.463C74.647 183.314 78.1305 183.314 80.279 185.463L98.3153 203.499C100.464 205.647 100.464 209.131 98.3153 211.279L93.541 216.054C91.8808 217.714 91.8808 220.406 93.541 222.066C94.8106 223.335 94.8106 225.394 93.541 226.663L89.2972 230.907C88.0275 232.177 85.9691 232.177 84.6995 230.907C83.0393 229.247 80.3477 229.247 78.6876 230.907L71.7914 237.803C69.6429 239.952 66.1594 239.952 64.0108 237.803L45.9746 219.767C43.8261 217.619 43.8261 214.135 45.9746 211.987L52.8708 205.09C54.5309 203.43 54.5309 200.739 52.8708 199.079C51.6012 197.809 51.6012 195.75 52.8708 194.481L57.1146 190.237C58.3842 188.967 60.4427 188.967 61.7123 190.237C63.3724 191.897 66.0641 191.897 67.7242 190.237L72.4985 185.463Z" fill="#DDDDDD" stroke="#FC9928"/>
<path d="M100.791 220.119L130.853 250.182C134.759 254.087 134.759 260.418 130.853 264.324L119.888 275.289L82.7548 238.155L100.791 220.119Z" fill="#FC9928"/>
<path d="M64.7188 184.047L34.6564 153.984C30.7511 150.079 24.4195 150.079 20.5142 153.984L9.54904 164.95L46.6825 202.083L64.7188 184.047Z" fill="#FC9928"/>
<path d="M68.9623 215.876C71.3061 218.22 75.1061 218.22 77.4499 215.876C79.7937 213.532 79.7937 209.732 77.4499 207.388C75.1061 205.044 71.3061 205.044 68.9623 207.388C66.6185 209.732 66.6185 213.532 68.9623 215.876Z" fill="#FC9928"/>
</svg>
