<svg width="1152" height="380" viewBox="0 0 1152 380" fill="none" xmlns="http://www.w3.org/2000/svg">
<mask id="mask0" mask-type="alpha" maskUnits="userSpaceOnUse" x="0" y="0" width="1152" height="380">
<rect width="1152" height="380" fill="#2F4258"/>
</mask>
<g mask="url(#mask0)">
<mask id="mask1" mask-type="alpha" maskUnits="userSpaceOnUse" x="-102" y="-420" width="1329" height="1159">
<rect x="1226.73" y="230.896" width="1119.07" height="730.501" transform="rotate(153.002 1226.73 230.896)" fill="#C4C4C4"/>
</mask>
<g mask="url(#mask1)">
<path d="M475.502 61.24C845.235 17.1665 994.029 199.178 1022.21 295.694L1173.61 592.872L72.9291 1108.06C-184.434 758.845 -638.33 86.2415 -395.012 189.582C-90.8656 318.758 13.336 116.332 475.502 61.24Z" fill="#1E2A39" fill-opacity="0.25"/>
<path d="M777.508 82.9964C1066.54 -13.1557 1221.16 110.532 1262.35 184.395L1160.51 471.456L220.06 967.043C112.974 909.657 -104.017 789.353 -115.291 767.224C-129.384 739.563 -323.323 225.746 -280.347 188.366C-237.37 150.985 -7.6879 92.0371 150.145 82.2758C307.977 72.5144 416.222 203.186 777.508 82.9964Z" fill="#1E2A39" fill-opacity="0.5"/>
<path d="M879.964 114.131C1034.23 56.4328 1222.7 103.013 1297.66 133.516L1326.22 189.586L209.812 741.92C59.7254 545.564 -218.493 146.891 -130.673 123.046C-20.8984 93.2403 113.722 193.959 336.985 223.395C560.249 252.831 687.131 186.253 879.964 114.131Z" fill="#1E2A39"/>
</g>
</g>
</svg>
