<svg width="1152" height="277" viewBox="0 0 1152 277" fill="none" xmlns="http://www.w3.org/2000/svg">
<mask id="mask0" mask-type="alpha" maskUnits="userSpaceOnUse" x="0" y="0" width="1152" height="277">
<rect width="1152" height="277" fill="#2F4258"/>
</mask>
<g mask="url(#mask0)">
<mask id="mask1" mask-type="alpha" maskUnits="userSpaceOnUse" x="-102" y="-329" width="1388" height="868">
<rect width="1126.78" height="578.868" transform="matrix(-0.93744 0.348146 -0.572866 -0.819649 1285.9 146.336)" fill="#C4C4C4"/>
</mask>
<g mask="url(#mask1)">
<path d="M503.049 48.9997C891.259 10.0103 1042.69 141.706 1069.89 212.428L1221.29 429.056L56.3819 828.455C-204.724 575.282 -663.86 86.9361 -411.56 158.93C-96.184 248.922 17.7859 97.7364 503.049 48.9997Z" fill="#1E2A39" fill-opacity="0.25"/>
<path d="M819.065 45.0666C1124.02 -30.9375 1282.96 57.6216 1324.31 111.402L1210.79 324.994L214.134 707.125C103.38 666.655 -120.947 581.684 -132.221 565.553C-146.314 545.39 -337.057 169.658 -291.158 141.324C-245.26 112.99 -3.34168 65.4761 162.161 55.5119C327.665 45.5478 437.872 140.072 819.065 45.0666Z" fill="#1E2A39" fill-opacity="0.5"/>
<path d="M977.399 18.184C1140.32 -27.0883 1336.55 3.98404 1414.3 25.1793L1503.94 95.9409L260.604 493.132C108.16 350.874 -173.597 61.5766 -81.0675 42.4458C34.5946 18.5323 173.14 90.4932 406.215 108.306C639.291 126.119 773.749 74.7742 977.399 18.184Z" fill="#1E2A39"/>
</g>
</g>
</svg>
