<svg width="90" height="125" viewBox="0 0 90 125" fill="none" xmlns="http://www.w3.org/2000/svg">
<path fill-rule="evenodd" clip-rule="evenodd" d="M10.9861 61.588C5.46324 61.588 0.986084 66.0652 0.986084 71.588V114.642C0.986084 120.165 5.46325 124.642 10.9861 124.642H79.4833C85.0061 124.642 89.4833 120.165 89.4833 114.642V71.588C89.4833 66.0652 85.0061 61.588 79.4833 61.588H10.9861ZM40.2567 64.2153C38.6529 64.2153 37.3529 65.5154 37.3529 67.1191C37.3529 68.7229 38.6529 70.0229 40.2567 70.0229H50.0743C51.6781 70.0229 52.9781 68.7229 52.9781 67.1191C52.9781 65.5154 51.6781 64.2153 50.0743 64.2153H40.2567Z" fill="#FF9900"/>
<rect x="5" y="72" width="81" height="49" rx="7" fill="#FCCD32"/>
<circle cx="25.2939" cy="89.4012" r="6.40116" fill="#FF9900"/>
<path fill-rule="evenodd" clip-rule="evenodd" d="M34.8044 99.8074C38.6968 103.792 34.0359 108.933 28.4657 108.933H22.1217C16.5516 108.933 11.8907 103.792 15.7831 99.8074C18.1971 97.3363 21.5663 95.8023 25.2937 95.8023C29.0212 95.8023 32.3903 97.3363 34.8044 99.8074Z" fill="#FF9900"/>
<rect x="45.2338" y="85.9329" width="32" height="5" rx="2.5" fill="#FF9900"/>
<rect x="45.2338" y="93.9329" width="32" height="5" rx="2.5" fill="#FF9900"/>
<rect x="45.2338" y="101.933" width="18" height="5" rx="2.5" fill="#FF9900"/>
<path d="M39.0055 67.447V39.1282L23.793 0.34803H37.7444L45.4689 25.2556L53.0358 0.34803H67.066L51.6958 39.1282V67.447H39.0055Z" fill="#FF9900"/>
<path d="M39.0144 39.1115H51.7047L46.4101 25.2903L37.7533 0.33136H23.8019L39.0144 39.1115Z" fill="#FFC400"/>
</svg>
