<svg width="217" height="451" viewBox="0 0 217 451" fill="none" xmlns="http://www.w3.org/2000/svg">
<mask id="path-1-inside-1" fill="white">
<path fill-rule="evenodd" clip-rule="evenodd" d="M4.25414 17.4421C0.798218 24.2247 0.798218 33.1037 0.798218 50.8616V399.979C0.798218 417.737 0.798218 426.616 4.25414 433.399C7.29406 439.365 12.1447 444.216 18.1109 447.256C24.8935 450.712 33.7725 450.712 51.5305 450.712H166.179C183.936 450.712 192.815 450.712 199.598 447.256C205.564 444.216 210.415 439.365 213.455 433.399C216.911 426.616 216.911 417.737 216.911 399.979V50.8616C216.911 33.1037 216.911 24.2247 213.455 17.4421C210.415 11.4759 205.564 6.62524 199.598 3.58532C192.815 0.129395 183.936 0.129395 166.179 0.129395H51.5304C33.7725 0.129395 24.8935 0.129395 18.1109 3.58532C12.1447 6.62524 7.29406 11.4759 4.25414 17.4421ZM161.84 10.5595L161.84 7.6391V10.6408C161.84 17.278 156.459 22.6585 149.822 22.6585H67.8869C61.2587 22.6585 55.8838 17.2925 55.8693 10.6677V10.9768C55.8693 9.31115 54.2069 7.64554 52.5413 7.63912H48.3596C34.3402 7.63912 27.3305 7.63912 21.9758 10.3675C17.2656 12.7674 13.4362 16.5969 11.0362 21.307C8.30786 26.6617 8.30786 33.6714 8.30786 47.6909V403.15C8.30786 417.17 8.30786 424.179 11.0362 429.534C13.4362 434.244 17.2656 438.074 21.9758 440.474C27.3305 443.202 34.3402 443.202 48.3596 443.202H169.349C183.369 443.202 190.378 443.202 195.733 440.474C200.443 438.074 204.273 434.244 206.673 429.534C209.401 424.179 209.401 417.17 209.401 403.15V47.6909C209.401 33.6714 209.401 26.6617 206.673 21.307C204.273 16.5969 200.443 12.7674 195.733 10.3675C190.378 7.63912 183.369 7.63912 169.349 7.63912H164.747C163.085 7.64562 161.84 8.89506 161.84 10.5595Z"/>
</mask>
<path fill-rule="evenodd" clip-rule="evenodd" d="M4.25414 17.4421C0.798218 24.2247 0.798218 33.1037 0.798218 50.8616V399.979C0.798218 417.737 0.798218 426.616 4.25414 433.399C7.29406 439.365 12.1447 444.216 18.1109 447.256C24.8935 450.712 33.7725 450.712 51.5305 450.712H166.179C183.936 450.712 192.815 450.712 199.598 447.256C205.564 444.216 210.415 439.365 213.455 433.399C216.911 426.616 216.911 417.737 216.911 399.979V50.8616C216.911 33.1037 216.911 24.2247 213.455 17.4421C210.415 11.4759 205.564 6.62524 199.598 3.58532C192.815 0.129395 183.936 0.129395 166.179 0.129395H51.5304C33.7725 0.129395 24.8935 0.129395 18.1109 3.58532C12.1447 6.62524 7.29406 11.4759 4.25414 17.4421ZM161.84 10.5595L161.84 7.6391V10.6408C161.84 17.278 156.459 22.6585 149.822 22.6585H67.8869C61.2587 22.6585 55.8838 17.2925 55.8693 10.6677V10.9768C55.8693 9.31115 54.2069 7.64554 52.5413 7.63912H48.3596C34.3402 7.63912 27.3305 7.63912 21.9758 10.3675C17.2656 12.7674 13.4362 16.5969 11.0362 21.307C8.30786 26.6617 8.30786 33.6714 8.30786 47.6909V403.15C8.30786 417.17 8.30786 424.179 11.0362 429.534C13.4362 434.244 17.2656 438.074 21.9758 440.474C27.3305 443.202 34.3402 443.202 48.3596 443.202H169.349C183.369 443.202 190.378 443.202 195.733 440.474C200.443 438.074 204.273 434.244 206.673 429.534C209.401 424.179 209.401 417.17 209.401 403.15V47.6909C209.401 33.6714 209.401 26.6617 206.673 21.307C204.273 16.5969 200.443 12.7674 195.733 10.3675C190.378 7.63912 183.369 7.63912 169.349 7.63912H164.747C163.085 7.64562 161.84 8.89506 161.84 10.5595Z" fill="#14171B"/>
<path d="M4.25414 17.4421L4.62588 17.6315L4.25414 17.4421ZM4.25414 433.399L3.88241 433.588L3.88241 433.588L4.25414 433.399ZM18.1109 447.256L18.3003 446.884L18.3003 446.884L18.1109 447.256ZM199.598 447.256L199.409 446.884L199.409 446.884L199.598 447.256ZM213.455 433.399L213.827 433.588L213.827 433.588L213.455 433.399ZM213.455 17.4421L213.083 17.6315L213.083 17.6315L213.455 17.4421ZM199.598 3.58532L199.788 3.21359L199.788 3.21359L199.598 3.58532ZM18.1109 3.58532L18.3003 3.95705L18.1109 3.58532ZM161.84 7.6391L162.257 7.63909L161.422 7.6391H161.84ZM161.84 10.5595L161.422 10.5595L162.257 10.5595H161.84ZM55.8693 10.6677L56.2865 10.6668L55.4521 10.6677H55.8693ZM52.5413 7.63912L52.5429 7.22192H52.5413V7.63912ZM21.9758 10.3675L22.1652 10.7392L22.1652 10.7392L21.9758 10.3675ZM11.0362 21.307L10.6645 21.1176L10.6645 21.1176L11.0362 21.307ZM11.0362 429.534L11.408 429.345L11.408 429.345L11.0362 429.534ZM21.9758 440.474L21.7863 440.845L21.7864 440.845L21.9758 440.474ZM195.733 440.474L195.923 440.845L195.923 440.845L195.733 440.474ZM206.673 429.534L206.301 429.345L206.301 429.345L206.673 429.534ZM206.673 21.307L206.301 21.4964L206.301 21.4964L206.673 21.307ZM195.733 10.3675L195.923 9.99575L195.923 9.99575L195.733 10.3675ZM164.747 7.63912V7.22192L164.745 7.22192L164.747 7.63912ZM1.21542 50.8616C1.21542 41.9758 1.21575 35.3365 1.64603 30.0701C2.07591 24.8086 2.93288 20.9542 4.62588 17.6315L3.88241 17.2527C2.11949 20.7126 1.24849 24.689 0.814388 30.0021C0.380688 35.3104 0.381012 41.9895 0.381012 50.8616H1.21542ZM1.21542 399.979V50.8616H0.381012V399.979H1.21542ZM4.62588 433.209C2.93288 429.887 2.07591 426.032 1.64603 420.771C1.21575 415.504 1.21542 408.865 1.21542 399.979H0.381012C0.381012 408.851 0.380688 415.531 0.814388 420.839C1.24849 426.152 2.11949 430.128 3.88241 433.588L4.62588 433.209ZM18.3003 446.884C12.4126 443.884 7.62579 439.097 4.62588 433.209L3.88241 433.588C6.96233 439.633 11.8768 444.547 17.9215 447.627L18.3003 446.884ZM51.5305 450.294C42.6446 450.294 36.0053 450.294 30.7389 449.864C25.4774 449.434 21.623 448.577 18.3003 446.884L17.9215 447.627C21.3814 449.39 25.3578 450.261 30.671 450.695C35.9792 451.129 42.6584 451.129 51.5305 451.129V450.294ZM166.179 450.294H51.5305V451.129H166.179V450.294ZM199.409 446.884C196.086 448.577 192.232 449.434 186.97 449.864C181.704 450.294 175.064 450.294 166.179 450.294V451.129C175.051 451.129 181.73 451.129 187.038 450.695C192.351 450.261 196.328 449.39 199.788 447.627L199.409 446.884ZM213.083 433.209C210.083 439.097 205.296 443.884 199.409 446.884L199.788 447.627C205.832 444.547 210.747 439.633 213.827 433.588L213.083 433.209ZM216.494 399.979C216.494 408.865 216.493 415.504 216.063 420.771C215.633 426.032 214.776 429.887 213.083 433.209L213.827 433.588C215.589 430.128 216.46 426.152 216.895 420.839C217.328 415.531 217.328 408.851 217.328 399.979H216.494ZM216.494 50.8616V399.979H217.328V50.8616H216.494ZM213.083 17.6315C214.776 20.9542 215.633 24.8086 216.063 30.0701C216.493 35.3365 216.494 41.9758 216.494 50.8616H217.328C217.328 41.9895 217.328 35.3104 216.895 30.0021C216.46 24.689 215.589 20.7126 213.827 17.2527L213.083 17.6315ZM199.409 3.95705C205.296 6.95697 210.083 11.7438 213.083 17.6315L213.827 17.2527C210.747 11.208 205.832 6.2935 199.788 3.21359L199.409 3.95705ZM166.179 0.5466C175.064 0.5466 181.704 0.546925 186.97 0.977205C192.232 1.40709 196.086 2.26405 199.409 3.95705L199.788 3.21359C196.328 1.45066 192.351 0.579664 187.038 0.145565C181.73 -0.288136 175.051 -0.287811 166.179 -0.287811V0.5466ZM51.5304 0.5466H166.179V-0.287811H51.5304V0.5466ZM18.3003 3.95705C21.623 2.26405 25.4774 1.40709 30.7389 0.977205C36.0053 0.546925 42.6446 0.5466 51.5304 0.5466V-0.287811C42.6583 -0.287811 35.9792 -0.288136 30.6709 0.145565C25.3578 0.579664 21.3814 1.45066 17.9215 3.21359L18.3003 3.95705ZM4.62588 17.6315C7.62579 11.7438 12.4126 6.95697 18.3003 3.95705L17.9215 3.21359C11.8768 6.2935 6.96233 11.208 3.88241 17.2527L4.62588 17.6315ZM161.422 7.6391L161.422 10.5595L162.257 10.5595L162.257 7.63909L161.422 7.6391ZM162.257 10.6408V7.6391H161.422V10.6408H162.257ZM149.822 23.0757C156.689 23.0757 162.257 17.5084 162.257 10.6408H161.422C161.422 17.0476 156.229 22.2413 149.822 22.2413V23.0757ZM67.8869 23.0757H149.822V22.2413H67.8869V23.0757ZM55.4521 10.6686C55.4671 17.5235 61.0286 23.0757 67.8869 23.0757V22.2413C61.4888 22.2413 56.3005 17.0616 56.2865 10.6668L55.4521 10.6686ZM56.2865 10.9768V10.6677H55.4521V10.9768H56.2865ZM52.5397 8.05633C53.2374 8.05902 53.9691 8.41352 54.5345 8.98037C55.0999 9.54723 55.4521 10.2794 55.4521 10.9768H56.2865C56.2865 10.0085 55.8075 9.07506 55.1253 8.39111C54.4431 7.70716 53.5108 7.22565 52.5429 7.22192L52.5397 8.05633ZM48.3596 8.05633H52.5413V7.22192H48.3596V8.05633ZM22.1652 10.7392C24.7739 9.41 27.804 8.73493 31.9524 8.39599C36.1057 8.05665 41.343 8.05633 48.3596 8.05633V7.22192C41.3568 7.22192 36.0796 7.22159 31.8844 7.56435C27.6844 7.9075 24.5323 8.59661 21.7864 9.99575L22.1652 10.7392ZM11.408 21.4964C13.7679 16.8648 17.5335 13.0992 22.1652 10.7392L21.7864 9.99575C16.9977 12.4357 13.1044 16.329 10.6645 21.1176L11.408 21.4964ZM8.72507 47.6909C8.72507 40.6743 8.72539 35.4369 9.06473 31.2837C9.40366 27.1353 10.0787 24.1052 11.408 21.4964L10.6645 21.1176C9.26535 23.8636 8.57624 27.0157 8.23309 31.2157C7.89033 35.4108 7.89066 40.688 7.89066 47.6909H8.72507ZM8.72507 403.15V47.6909H7.89066V403.15H8.72507ZM11.408 429.345C10.0787 426.736 9.40366 423.706 9.06473 419.557C8.72539 415.404 8.72507 410.167 8.72507 403.15H7.89066C7.89066 410.153 7.89033 415.43 8.23309 419.625C8.57624 423.825 9.26535 426.977 10.6645 429.723L11.408 429.345ZM22.1652 440.102C17.5335 437.742 13.7679 433.976 11.408 429.345L10.6645 429.723C13.1044 434.512 16.9977 438.405 21.7863 440.845L22.1652 440.102ZM48.3596 442.785C41.343 442.785 36.1057 442.784 31.9524 442.445C27.804 442.106 24.7739 441.431 22.1652 440.102L21.7864 440.845C24.5323 442.244 27.6844 442.933 31.8844 443.277C36.0796 443.619 41.3568 443.619 48.3596 443.619V442.785ZM169.349 442.785H48.3596V443.619H169.349V442.785ZM195.544 440.102C192.935 441.431 189.905 442.106 185.756 442.445C181.603 442.784 176.366 442.785 169.349 442.785V443.619C176.352 443.619 181.629 443.619 185.824 443.277C190.024 442.933 193.177 442.244 195.923 440.845L195.544 440.102ZM206.301 429.345C203.941 433.976 200.175 437.742 195.544 440.102L195.923 440.845C200.711 438.405 204.604 434.512 207.044 429.723L206.301 429.345ZM208.984 403.15C208.984 410.167 208.983 415.404 208.644 419.557C208.305 423.706 207.63 426.736 206.301 429.345L207.044 429.723C208.444 426.977 209.133 423.825 209.476 419.625C209.819 415.43 209.818 410.153 209.818 403.15H208.984ZM208.984 47.6909V403.15H209.818V47.6909H208.984ZM206.301 21.4964C207.63 24.1052 208.305 27.1353 208.644 31.2837C208.983 35.4369 208.984 40.6743 208.984 47.6909H209.818C209.818 40.688 209.819 35.4108 209.476 31.2157C209.133 27.0157 208.444 23.8636 207.044 21.1176L206.301 21.4964ZM195.544 10.7392C200.175 13.0992 203.941 16.8648 206.301 21.4964L207.044 21.1176C204.604 16.329 200.711 12.4357 195.923 9.99575L195.544 10.7392ZM169.349 8.05633C176.366 8.05633 181.603 8.05665 185.756 8.39599C189.905 8.73493 192.935 9.41 195.544 10.7392L195.923 9.99575C193.177 8.59661 190.024 7.9075 185.824 7.56435C181.629 7.22159 176.352 7.22192 169.349 7.22192V8.05633ZM164.747 8.05633H169.349V7.22192H164.747V8.05633ZM162.257 10.5595C162.257 9.12474 163.316 8.06193 164.749 8.05633L164.745 7.22192C162.853 7.22932 161.422 8.66539 161.422 10.5595H162.257Z" fill="#121F32" mask="url(#path-1-inside-1)"/>
</svg>
