<svg width="358" height="300" viewBox="0 0 358 300" fill="none" xmlns="http://www.w3.org/2000/svg">
<path fill-rule="evenodd" clip-rule="evenodd" d="M305.075 138.933L357.59 86.418C315.617 33.7527 250.92 0 178.34 0C106.282 0 41.995 33.2687 0 85.284L52.4604 137.744C80.7297 98.8537 126.582 73.5695 178.34 73.5695C230.623 73.5695 276.88 99.3696 305.075 138.933ZM284.805 159.203C262.572 123.72 223.201 100.136 178.34 100.136C134.008 100.136 95.0374 123.167 72.6689 157.953L102.228 187.512C116.309 159.687 145.105 140.62 178.34 140.62C212.117 140.62 241.308 160.314 255.128 188.879L284.805 159.203ZM236.668 207.34C227.162 184.231 204.627 167.984 178.34 167.984C152.6 167.984 130.457 183.562 120.622 205.906L135.939 221.223C143.038 206.306 161.323 188.498 178.34 188.498C194.702 188.498 214.033 207.298 221.893 222.115L236.668 207.34Z" fill="#FCB449"/>
<path fill-rule="evenodd" clip-rule="evenodd" d="M156.473 232.561C153.99 235.044 153.99 239.07 156.473 241.553L169.961 255.041L156.473 268.529C153.99 271.012 153.99 275.037 156.473 277.52C158.956 280.003 162.982 280.003 165.465 277.52L178.953 264.033L192.441 277.52C194.924 280.003 198.949 280.003 201.432 277.52C203.915 275.037 203.915 271.012 201.432 268.529L187.945 255.041L201.432 241.553C203.915 239.07 203.915 235.044 201.432 232.561C198.949 230.078 194.923 230.078 192.44 232.561L178.953 246.049L165.465 232.561C162.982 230.078 158.956 230.078 156.473 232.561Z" fill="#FF0000"/>
</svg>
