<svg width="254" height="300" viewBox="0 0 254 300" fill="none" xmlns="http://www.w3.org/2000/svg">
<path d="M0 24.6479C0 11.0352 11.0352 0 24.6479 0H228.873C242.486 0 253.521 11.0352 253.521 24.6479V214.789L169.014 300H24.6479C11.0352 300 0 288.965 0 275.352V24.6479Z" fill="#FF9900"/>
<path d="M84.5071 215.493H3.8147e-05V265C3.8147e-05 284.33 15.6701 300 35 300H84.5071V215.493Z" fill="#FFA825"/>
<path d="M169.014 215.493H253.521L205.634 252.113L169.014 300V215.493Z" fill="#E88D05"/>
<rect width="84.507" height="84.507" transform="matrix(-1 0 0 1 169.014 215.493)" fill="#FF9900"/>
<rect width="84.507" height="84.507" transform="matrix(-1 0 0 1 253.521 130.986)" fill="#F8A72E"/>
<rect width="84.507" height="84.507" transform="matrix(-1 0 0 1 169.014 130.986)" fill="#FCB449"/>
<rect width="84.507" height="84.507" transform="matrix(-1 0 0 1 84.5071 130.986)" fill="#FEBF60"/>
<rect width="84.507" height="84.507" transform="matrix(-1 0 0 1 253.521 46.4789)" fill="#FCC676"/>
<rect width="84.507" height="84.507" transform="matrix(-1 0 0 1 169.014 46.4789)" fill="#FCCD87"/>
<rect width="84.507" height="84.507" transform="matrix(-1 0 0 1 84.5071 46.4789)" fill="#FCD8A3"/>
<path d="M169.014 300L253.521 215.493C218.662 217.958 213.38 217.958 185.211 217.958C172.535 217.958 171.948 225.235 171.831 230.282L169.014 300Z" fill="black" fill-opacity="0.1"/>
<path d="M169.014 300L253.521 215.493C218.662 217.958 218.662 217.958 190.141 220.775C177.526 222.021 175.822 230.869 175.704 235.915L169.014 300Z" fill="#FCCD87"/>
<path fill-rule="evenodd" clip-rule="evenodd" d="M169.015 35.2112C174.071 35.2112 178.169 31.1124 178.169 26.0563C178.169 21.0002 174.071 16.9014 169.015 16.9014C163.958 16.9014 159.86 21.0002 159.86 26.0563C159.86 31.1124 163.958 35.2112 169.015 35.2112ZM84.507 35.2112C89.5631 35.2112 93.6619 31.1124 93.6619 26.0563C93.6619 21.0002 89.5631 16.9014 84.507 16.9014C79.4509 16.9014 75.3521 21.0002 75.3521 26.0563C75.3521 31.1124 79.4509 35.2112 84.507 35.2112Z" fill="black" fill-opacity="0.1"/>
<path fill-rule="evenodd" clip-rule="evenodd" d="M169.015 32.3944C174.071 32.3944 178.169 28.2956 178.169 23.2394C178.169 18.1833 174.071 14.0845 169.015 14.0845C163.958 14.0845 159.86 18.1833 159.86 23.2394C159.86 28.2956 163.958 32.3944 169.015 32.3944ZM84.507 32.3944C89.5631 32.3944 93.6619 28.2956 93.6619 23.2394C93.6619 18.1833 89.5631 14.0845 84.507 14.0845C79.4509 14.0845 75.3521 18.1833 75.3521 23.2394C75.3521 28.2956 79.4509 32.3944 84.507 32.3944Z" fill="white"/>
<circle cx="42.2534" cy="257.746" r="22.1479" stroke="white" stroke-width="5"/>
<path d="M33.0986 257.147L39.62 263.38L51.4085 252.113" stroke="white" stroke-width="5" stroke-linecap="round" stroke-linejoin="round"/>
<circle cx="211.268" cy="88.7324" r="22.1479" stroke="white" stroke-width="5"/>
<path d="M202.113 88.1331L208.634 94.3662L220.423 83.0986" stroke="white" stroke-width="5" stroke-linecap="round" stroke-linejoin="round"/>
</svg>
