<svg width="385" height="300" viewBox="0 0 385 300" fill="none" xmlns="http://www.w3.org/2000/svg">
<path fill-rule="evenodd" clip-rule="evenodd" d="M167.787 298.956C161.954 299.646 156.018 300 150 300C67.1573 300 0 232.843 0 150C0 67.1573 67.1573 0 150 0C226.073 0 288.92 56.6302 298.683 130.034C281.585 203.48 232.931 264.81 167.787 298.956Z" fill="white"/>
<path fill-rule="evenodd" clip-rule="evenodd" d="M90.987 287.946C192.523 268.297 269.196 178.928 269.196 71.6518C269.196 67.2082 269.065 62.7954 268.805 58.4169C241.375 22.8854 198.36 0 150 0C67.1573 0 0 67.1573 0 150C0 211.891 37.4833 265.027 90.987 287.946Z" fill="#EEEEEE"/>
<path fill-rule="evenodd" clip-rule="evenodd" d="M50.7712 262.491C155.305 261.478 239.732 176.425 239.732 71.6518C239.732 55.8608 237.814 40.5178 234.199 25.8429C210.194 9.53173 181.21 0 150 0C67.1573 0 0 67.1573 0 150C0 194.796 19.6364 235.006 50.7712 262.491Z" fill="white"/>
<path fill-rule="evenodd" clip-rule="evenodd" d="M48.8839 229.018C135.795 229.018 206.25 158.563 206.25 71.6518C206.25 48.193 201.117 25.9331 191.913 5.93402C178.611 2.07091 164.548 0 150 0C67.1573 0 0 67.1573 0 150C0 177.964 7.65224 204.141 20.9769 226.551C30.0343 228.172 39.3603 229.018 48.8839 229.018Z" fill="#EEEEEE"/>
<path fill-rule="evenodd" clip-rule="evenodd" d="M48.8839 195.536C117.303 195.536 172.768 140.071 172.768 71.6518C172.768 44.9533 164.322 20.2274 149.957 0C67.1339 0.0233684 0 67.1717 0 150C0 162.922 1.63409 175.463 4.70689 187.427C18.4288 192.666 33.3213 195.536 48.8839 195.536Z" fill="white"/>
<path fill-rule="evenodd" clip-rule="evenodd" d="M48.884 163.393C99.5512 163.393 140.625 122.319 140.625 71.6518C140.625 45.3483 129.555 21.6303 111.82 4.90233C47.6854 21.7325 0.318848 79.9585 0.00170898 149.299C14.1532 158.227 30.9153 163.393 48.884 163.393Z" fill="#EEEEEE"/>
<path fill-rule="evenodd" clip-rule="evenodd" d="M4.89185 111.86C15.3321 72.0304 41.7366 38.6643 76.855 19.0118C95.6722 29.0314 108.482 48.8457 108.482 71.6518C108.482 104.567 81.799 131.25 48.8839 131.25C31.4637 131.25 15.7891 123.776 4.89185 111.86Z" fill="white"/>
<path fill-rule="evenodd" clip-rule="evenodd" d="M19.1545 76.6008C26.4484 63.6261 35.6163 51.8462 46.2912 41.6279C47.1458 41.555 48.0106 41.5179 48.884 41.5179C65.5265 41.5179 79.018 55.0093 79.018 71.6518C79.018 88.2943 65.5265 101.786 48.884 101.786C33.9271 101.786 21.5153 90.8887 19.1545 76.6008Z" fill="#EEEEEE"/>
<path fill-rule="evenodd" clip-rule="evenodd" d="M150 300C232.843 300 300 232.843 300 150C300 67.1573 232.843 0 150 0C67.1574 0 0 67.1573 0 150C0 232.843 67.1574 300 150 300ZM150 271.875C217.31 271.875 271.875 217.31 271.875 150C271.875 82.6903 217.31 28.125 150 28.125C82.6903 28.125 28.125 82.6903 28.125 150C28.125 217.31 82.6903 271.875 150 271.875Z" fill="#FF9900"/>
<rect x="176.786" y="174.107" width="207.589" height="96.4286" rx="22" fill="#FF0000"/>
<path d="M225.32 231.375H238.17V237.054H217.938V206.432H225.32V231.375Z" fill="white"/>
<path d="M249.148 237.054H241.787V206.432H249.148V237.054Z" fill="white"/>
<path d="M266.162 228.725L272.261 206.432H280.505L270.2 237.054H262.124L251.903 206.432H260.084L266.162 228.725Z" fill="white"/>
<path d="M301.747 224.077H290.138V231.375H303.85V237.054H282.756V206.432H303.892V212.132H290.138V218.588H301.747V224.077Z" fill="white"/>
<circle cx="342.857" cy="222.321" r="14.7321" fill="white"/>
<rect x="143.303" y="50.8928" width="13.3929" height="26.7857" rx="6.69643" fill="#1E2A39"/>
<rect x="222.322" y="156.696" width="13.3929" height="26.7857" rx="6.69643" transform="rotate(-90 222.322 156.696)" fill="#1E2A39"/>
<rect x="50.8928" y="156.696" width="13.3929" height="26.7857" rx="6.69643" transform="rotate(-90 50.8928 156.696)" fill="#1E2A39"/>
<rect x="143.303" y="222.321" width="13.3929" height="26.7857" rx="6.69643" fill="#1E2A39"/>
<rect x="68.3035" y="82.0013" width="15.5834" height="114.97" rx="7.7917" transform="rotate(-45 68.3035 82.0013)" fill="#1E2A39"/>
<rect x="192.538" y="96.4286" width="20.0893" height="77.2035" rx="10.0446" transform="rotate(45 192.538 96.4286)" fill="#1E2A39"/>
<rect x="139.324" y="156.696" width="8.05472" height="94.7561" rx="4.02736" transform="rotate(45 139.324 156.696)" fill="#FF0000"/>
<circle cx="150" cy="150" r="14.7321" fill="#FF9900"/>
</svg>
